<svg xmlns="http://www.w3.org/2000/svg" viewBox="0 0 64 64" role="img" aria-label="2026 World Cup">
  <rect width="64" height="64" rx="14" fill="#16b33f"/>
  <circle cx="47" cy="17" r="8" fill="#ffffff" opacity=".18"/>
  <path fill="#ffffff" d="M17 21.5c0-5.3 4.1-9 10.1-9 5.7 0 9.5 3.3 9.5 8.2 0 4.3-2.8 7-7.8 10.1l-4.3 2.7h12.7V40H16.5v-5.8l8.6-5.5c3.5-2.2 4.8-3.9 4.8-6.3 0-2.2-1.5-3.7-3.9-3.7-2.5 0-4.1 1.6-4.1 4.1v.8H17v-2.1Zm22.3 4.4c0-8.5 4.2-13.4 11.2-13.4 2.2 0 4 .4 5.3 1.1v6.2c-1.3-.8-2.9-1.2-4.7-1.2-3.7 0-5.8 2.2-6.1 6.2 1.2-1.4 3.1-2.2 5.4-2.2 5 0 8.2 3.6 8.2 8.7 0 5.5-3.9 9.3-9.5 9.3-6.1 0-9.8-4.7-9.8-14.7Zm6.2 5.4c0 2.4 1.5 4.1 3.8 4.1 2.2 0 3.6-1.6 3.6-3.9 0-2.4-1.4-3.9-3.7-3.9-2.2 0-3.7 1.6-3.7 3.7Z"/>
</svg>
